<?xml version="1.0" encoding="utf-8"?>
<!-- Generator: Adobe Illustrator 16.0.0, SVG Export Plug-In . SVG Version: 6.00 Build 0)  -->
<!DOCTYPE svg PUBLIC "-//W3C//DTD SVG 1.1//EN" "http://www.w3.org/Graphics/SVG/1.1/DTD/svg11.dtd">
<svg version="1.1" id="Layer_1" xmlns="http://www.w3.org/2000/svg" xmlns:xlink="http://www.w3.org/1999/xlink" x="0px" y="0px"
	 width="606px" height="676px" viewBox="0 0 606 676" enable-background="new 0 0 606 676" xml:space="preserve">
<g id="The_Maples">
	<path fill="#5D9FD6" stroke="#000000" stroke-miterlimit="10" d="M181,122.667V54l101.333-4.667V16h9.333V8l8-3l55.333,35
		c0,0-0.001,12.333-26.667,23.833l-31.909,51.722l-5.55-3.805l-1.625,2.75l-11.75-6l-2.75,1.875c0,0-5.123-1-6.749-12.25l-17.376,1
		c0,0-1.625,8.375,0.625,11.375v10.375L181,122.667z"/>
</g>
<g id="Kildonan">
	<path fill="#FBA919" stroke="#000000" stroke-miterlimit="10" d="M355.001,40c0,0,0.542,11.416-26.667,23.833
		c0,0-46.209,74.292-45.334,74.542l22.875,12.25l7-11.75l22.375-22.625l20.875,10.375l3-3.125l15.957,8.755l7.918-5.13l-1.25-19.5
		l3.125-3.625c0,0,12.125,4.75,16.875-2.25l14.125-19.5L355.001,40z"/>
</g>
<g id="River_East">
	<path fill="#320A3E" stroke="#000000" stroke-miterlimit="10" d="M421,77.125l-19.25,24.625c0,0-4.5,6.375-16.875,2.25
		l-3.125,3.625c0,0,6.375,6.5,19.625,5.125l-5,9.125l33.375,16.75c0,0,5.497,5.497,12.989-8.021
		c0.087-0.157,0.174-0.316,0.261-0.479l8,16.375c0,0,0.75,5.125,13.375,4.75s71.25-0.625,71.25-0.625L421,77.125z"/>
</g>
<g id="Rossmere">
	<path fill="#004D73" stroke="#000000" stroke-miterlimit="10" d="M381.75,107.625c0,0,6.75,6.625,19.625,5.125l-5,9.125
		l33.375,16.75c0,0,5.625,5.375,13.25-8.5l8,16.375c0,0,2.625,5.664,12.75,4.77l29.001-0.384l-0.001,35.99h16.75V196l-9.5,4.625
		h-3.625l-1,1.75h-9.25l-5.625,2.75h-20.625l-0.5-9.75l-14.875,5.75l-8.625-3.75L446.25,176l-13.625-6.75l-2.75,1.125
		c0,0-5.875-11.875-9.375-12l-3.625,4.125l-34-17.5l-2.5,2.5l-15.125-8.125c0,0,8.5-6.625,17.75-12.25L381.75,107.625z"/>
</g>
<g id="Transcona">
	<polygon fill="#8FC73E" stroke="#000000" stroke-miterlimit="10" points="509.5,186.875 584,186.875 599.166,219.333 
		599.166,253.833 561.666,253.833 562,289.667 494.333,290.833 492.666,260.833 495.833,253.333 494.166,227.667 508.166,227.333 
		506.833,211.5 510.666,208.167 	"/>
</g>
<g id="Tyndall_Park">
	<polygon fill="#188140" stroke="#000000" stroke-miterlimit="10" points="181,122.667 232.501,121.353 233.667,173.333 
		272.833,190.166 271,217 242.833,203.333 199,202.666 198.667,193 181,192.833 	"/>
</g>
<g id="Burrows">
	<path fill="#4A161D" stroke="#000000" stroke-miterlimit="10" d="M232.501,121.353l1.166,51.979l49.321,21l13.346-29.667
		l-3.667-2.667l3.667-6.5l2.333,0.876l4.333-7.29l-20-10.71l13.425-22.82l-5.55-3.805l-1.625,2.75l-11.75-6l-2.75,1.875
		c0,0-5.582-0.124-6.749-12.25l-17.376,1c0,0-1.959,8.043,0.625,11.375v10.375L232.501,121.353z"/>
</g>
<g id="St._Johns">
	<path fill="#EF3F3E" stroke="#000000" stroke-miterlimit="10" d="M305.875,150.625l7-11.75l22.375-22.625l20.875,10.375l3-3.125
		l15.957,8.755l-9.832,7.12c0,0-6.748,0.875-2.248,17c0,0,3.334,8.959-3.166,13.959l-6,7.667l-5.334-2.667L345.669,178l-3.5-3l-3,3
		l-40.502-21.625l4.333-7.29"/>
</g>
<g id="Elmwood">
	<path fill="#774D9F" stroke="#000000" stroke-miterlimit="10" d="M365.25,139.375l15.125,8.125l2.5-2.5l34,17.5l-44.707,58.167
		l-29.333-19.5c0,0-14.167-9.5,3.333-19.833l7.668-3.334l7.268-8.824c0,0,4.732-4.427,1.898-12.801
		C363.002,156.375,358.665,140.749,365.25,139.375z"/>
</g>
<g id="Concordia">
	<path fill="#00C2F2" stroke="#000000" stroke-miterlimit="10" d="M420.5,158.375l-48.332,62.292l-0.998,5.833l13.166,1.333
		L423.17,238l4.333-9.167l-5-3.5L446.25,176l-13.625-6.75l-2.75,1.125C429.875,170.375,423.664,158.583,420.5,158.375z"/>
</g>
<g id="Radisson">
	<polygon fill="#384E23" stroke="#000000" stroke-miterlimit="10" points="423.17,238.001 427.503,228.834 422.503,225.334 
		435.875,197.375 444.5,201.125 459.375,195.375 459.875,205.125 480.5,205.125 486.125,202.375 495.375,202.375 496.375,200.625 
		500,200.625 509.5,196 510.666,208.167 506.833,211.5 508.166,227.333 494.166,227.667 495.833,253.333 492.666,260.833 
		494.333,290.833 494.17,363.833 459.503,363.833 459.836,328.5 405.503,329.166 394.836,324.833 390.003,323.5 385.67,320.5 
		389.003,319.333 385.67,316.166 390.003,313.333 384.336,311.5 389.17,308.666 377.17,295 424.836,293.666 423.336,238.854 	"/>
</g>
<g id="Point_Douglas">
	<path fill="#CB9C66" stroke="#000000" stroke-miterlimit="10" d="M282.988,194.333l13.346-29.667l-3.667-2.667l3.667-6.5
		L339.169,178l3-3l3.5,3l2.833-2.667l5.334,2.667c0,0-27.836,9.335-11.001,23.167l25.33,16.839c0,0-2.494,6.826-8.161,6.493
		l-10,0.012c0,0-16-1.345-17.5,6.988L332.337,238c0,0-15.167,1.332-11.167-9.168l6.5-14.667L282.988,194.333z"/>
</g>
<g id="St._Boniface">
	<path fill="#8C6977" stroke="#000000" stroke-miterlimit="10" d="M371.17,226.501l13.166,1.333l38.834,10.167l1.666,55.665
		L377.17,295l7.614,8.672c0,0-4.28,4.161-9.614-1.339l-12.667,7.333c0,0,2.001-10.333-9.333-14.667c0,0-8.166-2-13.5,1.5
		c0,0-18.5,8.333-15.167-10.5c0,0,1.166-9,14.833-24.5c0,0,4.833-9.167-1-15.833l-5.999-7.665c0,0-2.745-13.141,10.877-13.319
		l16.79-0.182c0,0,5.156,0.681,8.161-6.493l4.003,2.661L371.17,226.501z"/>
</g>
<g id="Logan">
	<path fill="#4D4E99" stroke="#000000" stroke-miterlimit="10" d="M271,217l1.833-26.833l54.836,24l-6.5,14.667
		c0,0-4.997,9.503,11.167,9.168l5.999,7.665c0,0,5.835,5.667,1,15.833c0,0-9.019-3.16-13.76,2.336l-6.575,3.83
		c0,0-4.332,3.5-3.166-2.167l-1.834-5l-6,1.334l-7.332-17l-5.5,1l0.333-17.5L271,217z"/>
</g>
<g id="Fort_Rouge">
	<path fill="#F2B6B6" stroke="#000000" stroke-miterlimit="10" d="M287.625,326.625l-5.5-8.625l3.875-4.375l-13.5-21.25
		c0,0,2.5-4.625,0-7.5l11.75-6.375L295,291.875c0,0,10.25,9.375,6.75-3.625l-3.5-10.875c0,0-2.75-5.75,3-5.75
		c0,0,12.875-0.029,15.375-2.89l8.951-4.899c0,0,4.846-4.962,13.76-2.336c0,0-16.508,18.5-15.234,29.125c0,0-2.102,3-4.602,1.875
		l-4.875,15.5c0,0-1.75,6.375-5.75,7.5L287.625,326.625z"/>
</g>
<g id="Wolseley">
	<path fill="#336366" stroke="#000000" stroke-miterlimit="10" d="M295.168,245.833H269.25v18.003l-31.75,10.539v7
		c0,0,7.625,2.083,11.625-1.771c0,0,9.375-5.229,11.625,1.646c0,0,5.283,7.206,11.125,4l12.375-6.75L295,291.875
		c0,0,10.125,8.875,6.75-3.625l-3.5-10.875c0,0-2.905-5.458,3-5.75c5.905-0.292,14.25-0.529,15.375-2.89c0,0-1.705-1.236-0.79-3.236
		l-1.834-5L308,261.833l-7.332-17L295.168,245.833z"/>
</g>
<g id="Minto">
	<polygon fill="#E2E6AB" stroke="#000000" stroke-miterlimit="10" points="269.25,245.833 295.168,245.833 295.501,228.333 
		242.833,203.333 242.833,272.604 269.167,263.836 	"/>
</g>
<g id="Southdale">
	<path fill="#8E9A39" stroke="#000000" stroke-miterlimit="10" d="M494.17,363.833h-34.667l0.333-35.333l-54.333,0.667l-15.5-5.667
		c0,0-3.168,13.002-2.168,16.335s13.333,17.167,14.333,17.167s1.166,7.333-0.167,8.667s-2.667,8.501,0,10.834s4.5,5.834,4.5,7
		s-2.334,6.833,1,9.333s5.5,5.834,5.167,9.667s1.501,6.667,5.167,8.5s0.5,6.166,1.333,7.166s1.999,3.667,6.499,4.667s4,6,4,6
		s1,4.334,5.667,7.167s2.833,8.667,2.833,8.667s0.168,6.166,5.751,8.166s4.249,6.667,4.249,6.667s0.836,2.5,5.502,3.5
		s7.333,9,7.333,9l2.833,6.667l19-13.5h11.335l1.665,0.167V364.502"/>
</g>
<g id="St._Vital">
	<path fill="#F1853E" stroke="#000000" stroke-miterlimit="10" d="M362.503,309.666l12.667-7.333c0,0,4.398,5.176,9.614,1.339
		l4.386,4.995l-4.834,2.833l5.667,1.833l-4.333,2.833l3.333,3.167l-3.333,1.167l4.333,3c0,0-6.634,15.639,1.682,22.152l10.483,11.35
		c0,0,2.027,4.629-0.987,10.23c0,0-2.344,7.697,1.654,10.066c0,0,3.877,5.047,3.666,6.203c0,0-13.827-4.502-29.331,13.332
		l-9.837-14.166l-5.667,2.666l2.167-6.166L358,369.501c0,0-2.833-3.167,0-8c0,0,2.982-5.169-1.259-11.918
		c0,0-9.573-12.252-14.573-17.085C342.168,332.498,358.501,329.331,362.503,309.666z"/>
</g>
<g id="Riel">
	<path fill="#802046" stroke="#000000" stroke-miterlimit="10" d="M342.168,332.498c0,0-10.168,2.833-17.334,2.333
		c0,0-11.834-1.167-10.5,7.167c0,0,0,6.333,7.5,2.833c0,0,10.5-8.667,16-2.333l11.834,10.333c0,0,10.332,12.5-4.834,12.167
		c0,0-21.834-10.833-18,4.5l6.833,8.667c0,0,6.835,10.501-5.499,11.834c0,0-20.5-7.167-18,5.333l5.666,12.167
		c0,0,3.334,5.166,3.334,9.666c0,0,0.333,15.668,9.833,15.834c0,0,9.666,1.499,16.833-7.334c0,0,13.001-7.499,14.834,3.334
		c0,0,2.333,6.166-4.167,9.5c0,0-19.333,7.834-15.833,14.834c0,0,12.502,10.333,16.168,11l6.666-3.832l-0.833-2.834
		c0,0,8.666-0.334,9.833-4s6.167-4.666,6.167-4.666l-2.833-4.167l17.333-11.167l-8.167-12.333l1-8.833l-8.832-15.666l-9.837-14.166
		l-5.667,2.666l2.167-6.166L358,369.501c0,0-3.002-3.499,0-8c0,0,2.912-6.704-1.259-11.918L342.168,332.498z"/>
</g>
<g id="Fort_Garry_-_Riverview">
	<path fill="#2A338A" stroke="#000000" stroke-miterlimit="10" d="M287.625,326.625l21.25-11.125c0,0,3.703-0.99,5.75-7.5
		l4.875-15.5c0,0,2.369,0.918,4.602-1.875c0,0-0.096,12.542,15.568,5.875c0,0,4.669-3.666,13.5-1.5c0,0,10.835,4.001,9.333,14.667
		c0,0-2.834,17.998-20.335,22.832c0,0-12.001,3-17.334,2.333c0,0-11.833-1.001-10.5,7.167c0,0,0.5,5.5,7.5,2.833
		c0,0,10.833-8.334,16-2.333l11.834,10.333c0,0,10.166,12.333-4.834,12.167c0,0-21.833-11.167-18,4.5c0,0,18.335,18.333,1.334,20.5
		c0,0-5.719-1.676-8.02-1.854c0,0-1.402-6.646-10.191-3.479l-11.456,7.333l-1,28.5h-6.667l-24.167,13l-4.5-6.166v-27l-0.667-5.167
		c0,0-4.333-6.5-2-10l1.5-2.333v-25l0.5-14.333c0,0,3.834,2.167,6.667,0.667l23-10.667L287.625,326.625z"/>
</g>
<g id="Seine_River">
	<path fill="#8FD4D7" stroke="#000000" stroke-miterlimit="10" d="M356.836,464.332l6.666-3.832l-0.833-2.834
		c7.003-0.167,9.833-4,9.833-4c0.836-3.834,6.167-4.666,6.167-4.666l-2.833-4.167l17.333-11.167l-8.167-12.333l1-8.833
		l-8.832-15.666c12.337-15.999,29.331-13.332,29.331-13.332c-2.999,8.502,1,9.333,1,9.333c5.168,3.835,5.167,9.667,5.167,9.667
		c-0.498,5.002,5.167,8.5,5.167,8.5c3.502,0.336,1.333,7.166,1.333,7.166c2.002,3.168,6.499,4.667,6.499,4.667c4.167,0.002,4,6,4,6
		c0.761,3.669,5.667,7.167,5.667,7.167c4.501,2.669,2.833,8.667,2.833,8.667c0.327,5.918,5.751,8.166,5.751,8.166
		c5.418,1.502,4.249,6.667,4.249,6.667c1.001,2.169,5.502,3.5,5.502,3.5c6.169,3.669,10.166,15.667,10.166,15.667
		c-2.667,25.84,3.166,23.996,3.166,23.996s9.833,0.333,7.833,2s-3,13.333-3,13.333l-59.501,32.334v22.667L347,607.499
		c0,0,0.668-19.67-3.665-23.003c0,0-19.001-10.334-17.167-24.167c0,0,3.5-26.166-0.833-31.666c0,0-2.999-7.167-6.333-2.667
		c0,0-11.334,13.167-14.334,6.5c0,0-4.256-4.833,5.289-10.833c0,0,8.377-4.333,12.211-4c0,0,17.666,1.166,16-7.167
		c0,0,0.666-4.834-3-7.667c0,0-6.5-5.666-2.833-13.166l7-16.5c0,0,2.833-10.668,7-3.501c0,0,4.122,5.834,5.228,7.167
		c1.106,1.333,10.631,4.874,9.439-4.667S356.836,464.332,356.836,464.332z"/>
</g>
<g id="Fort_Richmond">
	<path fill="#ECE83F" stroke="#000000" stroke-miterlimit="10" d="M297.5,420.498l1-28.5l11.456-7.333c0,0,7.673-3.543,10.191,3.479
		c0,0-11.812-2.315-9.98,7.187l5.666,12.167c0,0,3.725,5.413,3.445,11.291c0,0,1.389,27.539,26.555,6.875
		c0,0,13.002-7.835,14.834,3.334c0,0,2.081,6.478-4.167,9.5c0,0-19.165,7.499-15.833,14.834c0,0,9.837,8.499,16.168,11
		c0,0,3.834-0.341,4.166,7.83c0,0,2.017,10.558-9.439,4.667l-5.228-7.167c0,0-3.832-7.669-7,3.501l-7,16.5
		c0,0-3.381,5.191,1.013,11.037l-31.681,17.632l-1.5-16.834l-4.5,2.167L297.5,420.498z"/>
</g>
<g id="River_Heights">
	<path fill="#803920" stroke="#000000" stroke-miterlimit="10" d="M237.5,281.375c0,0,6.875,1.833,11.625-1.771
		c0,0,7.112-4.482,10.805,0c0,0,5.219,9.315,11.945,5.646c0,0,3.125-0.125,0.625,7.125l13.5,21.25L282.125,318l9.042,15.499
		l-23,10.667c0,0-2.167,1.832-6.667-0.667l-0.096,2.752L237.5,350.75l-0.75-3.125l-5.5-0.375l1.875-48.5l-6.75-1.125
		c0,0-0.75-10.75-2-11.625C224.375,286,231.75,281.625,237.5,281.375z"/>
</g>
<g id="St._Norbert">
	<path fill="#EE499A" stroke="#000000" stroke-miterlimit="10" d="M206.334,670.998l139.816-79.412c0,0-0.353-6.55-6.334-9.318
		c0,0-16.038-9.794-13.595-22.363c0,0,2.292-21.861,0.368-28.383c0,0-3.278-9.844-7.589-5.524c0,0-10.5,12.497-14.334,6.5
		c0,0-3.754-5.669,5.289-10.833c0,0,8.717-4.035,12.211-4c0,0,24.834,2.496,13-14.834l-1.82-2.129l-31.681,17.632l-1.5-16.834
		l-4.5,2.167l1.834-83.167H290l-23.333,13l6.333,11.67l-0.5,16.5l-60.667,34.5v81l-7.5,0.333L206.334,670.998z"/>
</g>
<g id="Fort_Whyte">
	<path fill="#B8C5E5" stroke="#000000" stroke-miterlimit="10" d="M237.5,350.75l23.904-4.499L261,382.832c0,0-5,4.332,0.5,12.333
		l0.667,32.167l4.5,6.166l6.333,11.67l-0.5,16.5l-60.667,34.5V473l-9.002-0.667v-9L201.166,461l1.5-2.334l-1.5-27.666l-4.167,3.833
		h-18l1.167-72.771L237.5,350.75z"/>
</g>
<g id="Tuxedo">
	<path fill="#144D32" stroke="#000000" stroke-miterlimit="10" d="M180.166,362.062L237.5,350.75l-0.75-3.125l-5.5-0.375l1.875-48.5
		l-6.75-1.125c0,0-0.728-10.562-2-11.625c0,0-4.378-2.167-6.378,0s-0.328,8.501-9.164,5.501c0,0-3.169-0.978-7.169,2.178
		c0,0-7,3.155-11.333-1.345c0,0-8.667-7.5-15.833-2.5l-5.667,0.791l-6,0.876c0,0-4.667,2.522-8.333,2.178c0,0-5.833-1.345-8.5,2.655
		c0,0-6,4.5-10.5,4l-6.333-0.5l-0.667,9.832l9.833-2.332l-2.5,56l6.667,1l-0.5,4L180.166,362.062z"/>
</g>
<g id="St._James">
	<path fill="#E1ACCF" stroke="#000000" stroke-miterlimit="10" d="M181,192.833L198.667,193l0.333,9.667l43.833,0.667v69.272
		l-5.333,1.771v7c0,0-5.082,0.042-13.125,4.625c0,0-6.71-2.5-6.378,0c0,0-1.327,9.002-9.164,5.501c0,0-3.168-0.811-7.169,2.178
		c0,0-6.195,4.738-13.765-3.054c0,0-7.9-4.957-13.402-0.791l-11.667,1.667c0,0-6,2.391-8.333,2.178c0,0-3.06-1.488-4.364,0
		l-2.304-5.179l-7.333,3l-7-0.875l1-24.125l35.5,0.667l1.167-73.666L181,192.833z"/>
</g>
<g id="Assiniboia">
	<path fill="#0F2132" stroke="#000000" stroke-miterlimit="10" d="M171.163,193.5h-42.666l2.665-34.166H75.829l0.833,6.5
		l-33.5,0.333l2.5,13.667c0,0,1,12.667-1.667,17.167l-0.833,39.333l-36.167,2.5l-1,48.167l66.667-14.396l10.5,5.007l1.167-16.61
		l31.167,0.167l10.667,6.5l8.333-1.168l35.5,0.667L171.163,193.5z"/>
</g>
<g id="Kirkland_Park">
	<path fill="#58B37D" stroke="#000000" stroke-miterlimit="10" d="M134.496,266.5l-1,24.125l7,0.875l7.333-3l2.304,5.179
		c0,0-2.635-0.345-4.136,2.655s0.332,0.667,0.332,0.667s-8.998,4.333-10.832,3.333l-6.333-0.5c0,0-10.834,8.667-15.834,4.333
		c0,0-5.333-3.833-5.667,9.167c0,0,7,14.167,0,16.5c0,0-6.167,3.667-11.667-6.833c0,0-1.5-4.5-9.167-3.5s-7.667,0.167-7.667,0.167
		l-11.167-4.667c0,0-9.857,0.477-9.541-6.333c0.008-0.163,0.021-0.329,0.041-0.5l-5-6.167c0,0-6.833-5.333-10.833,2l-4.333,3.667
		l-20.5,8.833l0.785-32.225l54.048-11.671l10.5,5.007l1.167-16.61l31.167,0.167l10.667,6.5L134.496,266.5z"/>
</g>
<g id="Charleswood">
	<path fill="#998C73" stroke="#000000" stroke-miterlimit="10" d="M5.667,448.667l73.667-1.167V442l34,0.667v-4.333h34.833V434
		l30.832,0.833l1.167-72.771l-38.168,6.271l0.5-4l-6.667-1l2.5-56l-9.833,2.332l0.667-9.832c0,0-10.506,8.668-15.834,4.333
		c0,0-5.504-3.665-5.667,9.167c0,0,7.329,13.002,0,16.5c0,0-5.505,4.001-11.667-6.833c0,0-2.004-4.832-9.167-3.5l-7.667,0.167
		l-11.167-4.667c0,0-9.252,0.502-9.541-6.333s0.041-0.5,0.041-0.5l-5-6.167c0,0-6.504-5.332-10.833,2l-4.333,3.667L43,335.166
		l-1.167,43.667L33,382.166l-25,0.333L5.667,448.667z"/>
</g>
</svg>
